<?xml version="1.0" encoding="UTF-8"?>
<svg id="Layer_1" data-name="Layer 1" xmlns="http://www.w3.org/2000/svg" viewBox="0 0 1024 1024">
  <defs>
    <style>
      .cls-1 {
        fill: #ecdd7b;
      }
    </style>
  </defs>
  <path d="M897.9,702.46c19.15-39.89,39.2-81.8,40.92-85.55,5.79-12.66,11.49-25.36,17.76-37.78,3.12-6.18,8.03-11.47,11.01-17.7,4.18-8.75,8.9-17.71,10.57-27.08,4.8-26.81,4.14-56.47,11.42-82.8,4.07-14.73,11.33-27.12,15.78-41.74,2.3-7.57,6.43-14.56,6.25-22.81-.19-8.73,2.1-17.84-2.57-25.95-3.72-6.45-10.31-9.32-15.29-14.78-11.63-12.75-15.1-31.98-21.22-47.6-6.23-15.89-12.15-31.89-18.58-47.69-1.98-4.86-4.93-9.39-7.89-13.77-3.87-5.72-10.33-7-17.25-4.01-13.73,5.93-25.11,14.77-30.78,28.84-4.81,11.95-8.59,24.41-11.69,36.92-1.2,4.85-.04,10.69,1.38,15.7,2.63,9.27,6.43,19.79,5.41,29.36-1.59,14.87-3.24,28.27,.62,42.78,.76,2.87,.15,6.1,.18,9.17-.82,.11-1.65,.21-2.47,.32-.7-2.38-1.69-4.71-2.06-7.14-3.88-26.14-8.16-52.24-11.3-78.48-1.97-16.43-4.72-32.67-10.44-48.06-5.13-13.8-12.56-25.18-18.77-38.58-5.38-11.6-11-23.11-15.72-34.97-6.49-16.33-11.04-35.07-18.5-50.92-6.89-14.64-16.35-28.07-24.83-41.94-2.85-4.66-6.05-9.12-9.27-13.55-9.22-12.69-24.76-20.94-41.69-16.67-20.73,5.23-34,26.6-28.56,47.46,3.26,12.52,18.66,42.2,22.37,54.61,7.88,26.42,4.45,35.47,12.51,61.83,5.88,19.24,12.51,38.25,18.5,57.46,1.37,4.37,1.77,9.1,2.16,13.7,1.23,14.58,2.26,29.17,3.33,43.76,.11,1.5-.01,3.01-.02,4.52-.58,.08-1.16,.17-1.74,.25-.91-3.56-1.89-7.11-2.71-10.69-2.53-11.02-4.2-22.32-7.71-33.02-4.75-14.49-10.99-28.49-16.41-42.77-9.03-23.77-18.49-47.39-26.68-71.44-6.96-20.47-13.6-40.98-23.11-60.48-5.38-11.02-9.35-22.73-14.34-33.95-2.69-6.04-5.6-12.15-9.45-17.47-12.73-17.61-38.77-19.09-53.92-6.01-6.71,5.8-12.79,12.05-16.16,20.53-3.08,7.77-2.31,15.53,.61,22.86,8.38,21.01,21.07,40.98,27.16,62.56,7.58,26.89,6.02,56.05,13.82,82.88,3.99,13.74,6.95,27.82,11.78,41.25,5.28,14.69,4.51,30.16,7.73,45.08,5.2,24.04,9.72,48.22,14.72,72.31,.73,3.53,2.89,6.75,3.75,10.27,.77,3.15,.97,6.53,.78,9.77-.07,1.16-2.03,2.2-3.12,3.3-.89-1.04-2.3-1.96-2.57-3.15-1.13-5.02-1.8-10.14-2.85-15.18-4.11-19.85-8.74-39.61-12.31-59.57-2.57-14.35-9.54-26.82-14.6-40.14-7.73-20.33-14.88-40.98-20.61-61.95-8.09-29.6-19.53-57.93-29.95-86.67-3.34-9.22-6.85-18.46-9.08-27.97-4.14-17.65-22.24-24.69-37.89-21.38-21.69,4.59-37.71,31.95-30.01,55.77,6.07,18.77,19.52,39.01,24.45,58.15,8.44,32.83,7.83,64.78,15.57,97.77,4.77,20.34,14.54,40.72,18.09,61.34,3.78,22.01,1.98,44.08,9.76,65.05,.97,2.61,1.52,5.43,1.92,8.2,.61,4.13-1.09,7.08-5.91,8.87-.99-2.94-2.28-5.77-2.9-8.74-3.43-16.43-6.65-32.9-10.04-49.34-.57-2.75-1.31-5.56-2.53-8.07-10.09-20.81-16.15-42.12-20.5-64.47-3.42-17.59-4.82-36.3-8.86-53.77-1.12-4.84-2.64-9.6-3.91-14.41-3.92-14.84-22.68-22.86-36.99-16.62-3.43,1.5-6.45,3.32-9.12,5.45-1.2,.95-5.94,4.84-10.33,12.24-1.71,2.89-14.5,25.08-8.3,45.49,.84,2.75,2.51,7.07,6.38,19.15,1.05,3.28,1.9,5.98,2.45,7.76,.51,1.35,1.27,3.37,2.21,5.82,7.4,19.42,11.61,27.26,12.31,31.48,3.2,19.18-.61,38.82,2.27,58.05,1.52,10.15,1.65,20.51,2.46,30.78,1.31,16.58,3.1,33.14,3.8,49.75,.34,8.02-.78,16.24-2.23,24.18-3.81,20.75-8.66,41.32-12.12,62.13-1.9,11.43-2.05,23.18-2.58,34.8-1.04,22.59,3.75,54.86,4.99,77.41,2.65,47.91,5.64,55.29,20.74,94.14,11.03,28.36,23.44,52.76,35.37,73.1,2.46,7.3,3.58,14.59,4.11,21.89,11.31,4.81,21.01,11.29,27.54,15.11,41.57,24.36,84.68,18.33,156.37,11.17,50.17-5.01,99.94-9.98,142.01-46.27,7.27-6.27,13.37-12.67,18.49-18.8-.27-.33-.56-.64-.83-.97-2.63-2.44-5.13-5-7.42-7.76-4.25-5.13-7.62-10.86-10.19-16.93l-13-54.02c-.6-3.72-1.62-7.44-2.51-11.14-2.9-12.05,3.49-21.37,8.82-31.11l33.77-58.72Z"/>
  <path class="cls-1" d="M465.1,834.64c1.65-3.77,4.33-7.68,4.79-11.76,1.81-16,3.16-32.06,4.24-48.13,.53-7.94-.01-15.95,.1-23.92,.34-24.86-3.71-48.84-11.89-72.43-6.69-19.29-11.16-39.34-17.11-58.91-2.01-6.62-5.66-12.74-8.36-19.17-1.6-3.81-3.24-7.68-4.14-11.68-1.86-8.25-3.62-16.57-4.73-24.95-1.48-11.18-3.31-22.47-3.07-33.67,.19-8.82,3.65-17.52,5-26.37,2.11-13.81,3.63-27.71,5.45-41.56,.35-2.62,.58-5.33,1.43-7.81,5.02-14.59,7.15-38.84,12.47-53.32,5.49-14.93,14.17-20.1,19.93-34.93,.87-2.25,2.37-4.25,4.31-7.66,6.22-12.16,8.97-22.81,10.31-30.09,1.86-10.11,2.84-15.88,0-22.34-3.72-8.46-12.46-14.62-14.36-15.96-1.32-.93-2.36-1.5-2.78-1.72,0,0-4.75-2.52-10.28-2.89-7.7-.52-14.54,3.84-17.74,5.99-6.96,4.69-12.65,10.31-16.38,17.71-6.65,13.19-9.69,30.75-16.05,44.08-8.86,18.59-21.26,32.87-29.63,51.68-4.37,9.83-7.66,20.15-11.15,30.35-3.82,11.17-7.3,22.45-10.95,33.68-1.41,4.35-3.2,5.48-8.39,3.75-9.57-3.19-12.23-4.87-6.98-17.51,8.02-19.3,13.13-39.34,17.07-59.8,2.1-10.9,4.79-21.75,8.24-32.28,1.87-5.7,5-19.54,7.65-25.04,7.13-14.8,14.94-20.87,22.2-35.61,5.21-10.57,10.86-20.94,16.86-31.08,8.55-14.44,8.91-23.9,17.85-38.1,4.51-7.16,18.16-18.72,22.56-25.94,2.74-4.51,5.2-9.3,7-14.25,3.88-10.67-.93-19.13-7.44-27.24-5.99-7.47-14.31-10.01-22.94-10.05-5.45-.02-11.33,2.38-16.29,5.06-9.94,5.36-17.31,13.58-23.98,22.8-8.96,12.37-14.18,21.73-23.4,33.92-7.4,9.79-19.29,22.06-26.02,32.33-6.66,10.14-15.65,24.28-21.85,34.7-12.65,21.28-22.67,38.78-35,60.24-2.01,3.5-2.95,7.61-4.38,11.44-.44,0-.89,0-1.33,0-.15-1.38-.59-2.81-.4-4.15,3.76-26.61,8.86-55.1,22.68-78.43,11.68-19.71,24.73-36.86,35.32-57.21,5.36-10.29,10.46-20.73,15.57-31.14,2.85-5.81,3.18-15.59,6.36-21.21,7.52-13.3,17.25-22.79,25.14-35.87,7.35-12.18,7.14-24.97-1.02-36.52-6.77-9.59-21.89-13.62-33.7-9.93-14.18,4.43-22.62,15.74-31.8,25.87-10.24,11.29-19.46,23.55-28.61,35.77-6.26,8.37-11.85,17.27-17.39,26.15-11.88,19.04-23.68,38.14-35.24,57.38-9.16,15.24-18.02,30.67-26.82,46.13-3.62,6.36-6.68,13.03-10.07,19.51-.87,1.66-2.05,3.16-3.09,4.74-.61-.25-1.23-.5-1.84-.75,1.65-5.03,2.71-10.36,5.07-15.04,10.66-21.12,5.94-13.41,10.88-36.83,1.5-7.13,20.71-42.56,23.65-49.4,4.85-11.27,3.44-19.1,8.26-30.38,3.85-9,14.15-21.38,17.71-30.49,3.75-9.59,5.42-19.44,2.18-29.71-3.2-10.12-11.83-16.72-22.36-18.3-9.07-1.36-15.74,1.29-22.52,7.3-10.1,8.96-11.66,20.93-18.57,32.38-2.99,4.95-7.32,9.11-10.25,14.09-6.57,11.12-13.61,22.12-18.74,33.91-13.69,31.49-36.59,59.88-53.08,89.91-.72,1.31-1.59,2.53-2.49,3.73-.38,.51-5.2,9.02-6.38,9.97-1.16-1.91,1.63-11.68,1-13.54-3.7-10.92-11.15-19.2-19.1-27.04-6.58-6.48-18.57-3.87-21.64,4.84-5.24,14.87-9.93,29.93-14.91,44.89-3.93,11.83-7.74,23.7-11.98,35.41-2.48,6.83-5.47,13.5-8.67,20.02-5.33,10.88-12.09,21.21-16.13,32.52-2.21,6.18-1.5,14.32,.39,20.85,3.2,11.11,8.27,21.7,12.73,32.43,4.46,10.72,16.67,23.42,20.61,34.32,7,19.35,6.83,36.54,12.73,56.25,4.78,15.97,9.41,31.93,17.95,46.33,5.33,8.99,11.93,17.22,17.31,26.18,5.71,9.52,10.63,19.5,15.91,29.27,3.16,5.84,6.46,11.6,9.52,17.49,3.82,7.35,7.6,14.73,11.17,22.21,8.42,17.66,17.07,35.23,24.92,53.14,5.46,12.45,9.44,25.4,11.76,39,3.16,18.5,4.5,36.96,2.57,55.54-.96,9.2-3.59,18.23-5.69,27.29-1.24,5.33-2.63,10.66-4.47,15.8l-15.62,31.88c23.13,7.88,38.3,33.51,55.85,43.08,19.26,10.51,41.76,14.55,103.72,20.74,47.87,4.79,49.47,3.19,71.8,1.6,22.19-1.59,34.52-1.84,48.58-1.17,.48-9.25,1.01-18.49,1.66-27.72,.9-12.63,5.58-24.21,11.27-35.42"/>
</svg>