<?xml version="1.0" encoding="UTF-8"?>
<svg xmlns="http://www.w3.org/2000/svg" version="1.1" viewBox="0 0 360 360">
  <defs>
    <style>
      .cls-1 {
        fill: #231f20;
      }
    </style>
  </defs>
  <!-- Generator: Adobe Illustrator 28.6.0, SVG Export Plug-In . SVG Version: 1.2.0 Build 709)  -->
  <g>
    <g id="Layer_2">
      <g>
        <path class="cls-1" d="M306.08,242.95c6.25-13.03,12.8-26.71,13.36-27.94,1.89-4.13,3.75-8.28,5.8-12.34,1.02-2.02,2.62-3.75,3.59-5.78,1.36-2.86,2.9-5.78,3.45-8.84,1.57-8.75,1.35-18.44,3.73-27.04,1.33-4.81,3.7-8.86,5.15-13.63.75-2.47,2.1-4.75,2.04-7.45-.06-2.85.69-5.83-.84-8.47-1.21-2.11-3.37-3.04-4.99-4.83-3.8-4.16-4.93-10.44-6.93-15.54-2.03-5.19-3.97-10.41-6.07-15.57-.65-1.59-1.61-3.07-2.58-4.5-1.26-1.87-3.37-2.28-5.63-1.31-4.48,1.94-8.2,4.82-10.05,9.42-1.57,3.9-2.8,7.97-3.82,12.06-.39,1.58-.01,3.49.45,5.13.86,3.03,2.1,6.46,1.77,9.59-.52,4.86-1.06,9.23.2,13.97.25.94.05,1.99.06,2.99-.27.03-.54.07-.81.1-.23-.78-.55-1.54-.67-2.33-1.27-8.54-2.66-17.06-3.69-25.63-.64-5.36-1.54-10.67-3.41-15.69-1.68-4.5-4.1-8.22-6.13-12.6-1.76-3.79-3.59-7.55-5.13-11.42-2.12-5.33-3.61-11.45-6.04-16.63-2.25-4.78-5.34-9.17-8.11-13.7-.93-1.52-1.98-2.98-3.03-4.42-3.01-4.15-8.09-6.84-13.61-5.44-6.77,1.71-11.1,8.69-9.33,15.5,1.07,4.09,6.09,13.78,7.3,17.83,2.57,8.63,1.45,11.58,4.09,20.19,1.92,6.28,4.08,12.49,6.04,18.76.45,1.43.58,2.97.71,4.47.4,4.76.74,9.53,1.09,14.29.04.49,0,.98,0,1.48-.19.03-.38.05-.57.08-.3-1.16-.62-2.32-.89-3.49-.83-3.6-1.37-7.29-2.52-10.78-1.55-4.73-3.59-9.3-5.36-13.97-2.95-7.76-6.04-15.47-8.71-23.33-2.27-6.69-4.44-13.38-7.55-19.75-1.76-3.6-3.05-7.42-4.68-11.09-.88-1.97-1.83-3.97-3.09-5.71-4.16-5.75-12.66-6.24-17.61-1.96-2.19,1.89-4.18,3.94-5.28,6.71-1.01,2.54-.76,5.07.2,7.47,2.74,6.86,6.88,13.38,8.87,20.43,2.48,8.78,1.97,18.3,4.51,27.06,1.3,4.49,2.27,9.09,3.85,13.47,1.72,4.8,1.47,9.85,2.52,14.72,1.7,7.85,3.17,15.75,4.81,23.61.24,1.15.94,2.2,1.22,3.35.25,1.03.32,2.13.25,3.19-.02.38-.66.72-1.02,1.08-.29-.34-.75-.64-.84-1.03-.37-1.64-.59-3.31-.93-4.96-1.34-6.48-2.86-12.94-4.02-19.45-.84-4.69-3.12-8.76-4.77-13.11-2.52-6.64-4.86-13.38-6.73-20.23-2.64-9.66-6.38-18.92-9.78-28.3-1.09-3.01-2.24-6.03-2.97-9.13-1.35-5.76-7.26-8.06-12.37-6.98-7.08,1.5-12.32,10.43-9.8,18.21,1.98,6.13,6.37,12.74,7.98,18.99,2.76,10.72,2.56,21.15,5.09,31.93,1.56,6.64,4.75,13.3,5.91,20.03,1.24,7.19.65,14.39,3.19,21.24.32.85.5,1.77.63,2.68.2,1.35-.36,2.31-1.93,2.9-.32-.96-.74-1.88-.95-2.85-1.12-5.37-2.17-10.74-3.28-16.11-.19-.9-.43-1.82-.83-2.64-3.3-6.8-5.27-13.75-6.69-21.05-1.12-5.74-1.57-11.86-2.89-17.56-.37-1.58-.86-3.13-1.28-4.7-1.28-4.84-7.41-7.46-12.08-5.43-1.12.49-2.1,1.08-2.98,1.78-.39.31-1.94,1.58-3.37,4-.56.94-4.74,8.19-2.71,14.85.27.9.82,2.31,2.08,6.25.34,1.07.62,1.95.8,2.53.17.44.42,1.1.72,1.9,2.41,6.34,3.79,8.9,4.02,10.28,1.04,6.26-.2,12.68.74,18.96.5,3.32.54,6.7.8,10.05.43,5.41,1.01,10.82,1.24,16.25.11,2.62-.25,5.3-.73,7.9-1.24,6.78-2.83,13.49-3.96,20.29-.62,3.73-.67,7.57-.84,11.37-.34,7.38,1.22,17.91,1.63,25.28.86,15.65,1.84,18.05,6.77,30.74,3.6,9.26,7.66,17.23,11.55,23.87.8,2.38,1.17,4.76,1.34,7.15,3.69,1.57,6.86,3.69,8.99,4.93,13.57,7.95,27.65,5.98,51.06,3.65,16.38-1.64,32.64-3.26,46.37-15.11,2.37-2.05,4.36-4.14,6.04-6.14-.09-.11-.18-.21-.27-.32-.86-.8-1.68-1.63-2.42-2.54-1.39-1.68-2.49-3.54-3.33-5.53l-4.24-17.64c-.2-1.21-.53-2.43-.82-3.64-.95-3.93,1.14-6.98,2.88-10.16l11.03-19.17Z"/>
        <path class="cls-1" d="M164.75,286.12c.54-1.23,1.41-2.51,1.56-3.84.59-5.22,1.03-10.47,1.38-15.72.17-2.59,0-5.21.03-7.81.11-8.12-1.21-15.95-3.88-23.65-2.18-6.3-3.64-12.85-5.59-19.24-.66-2.16-1.85-4.16-2.73-6.26-.52-1.24-1.06-2.51-1.35-3.82-.61-2.7-1.18-5.41-1.54-8.15-.48-3.65-1.08-7.34-1-11,.06-2.88,1.19-5.72,1.63-8.61.69-4.51,1.19-9.05,1.78-13.57.11-.86.19-1.74.47-2.55,1.64-4.77,2.33-12.68,4.07-17.41,1.79-4.87,4.63-6.56,6.51-11.4.29-.73.77-1.39,1.41-2.5,2.03-3.97,2.93-7.45,3.37-9.83.61-3.3.93-5.18,0-7.29-1.22-2.76-4.07-4.77-4.69-5.21-.43-.3-.77-.49-.91-.56,0,0-1.55-.82-3.36-.94-2.51-.17-4.75,1.25-5.79,1.96-2.27,1.53-4.13,3.37-5.35,5.78-2.17,4.31-3.17,10.04-5.24,14.4-2.89,6.07-6.94,10.73-9.67,16.88-1.43,3.21-2.5,6.58-3.64,9.91-1.25,3.65-2.38,7.33-3.57,11-.46,1.42-1.04,1.79-2.74,1.22-3.13-1.04-3.99-1.59-2.28-5.72,2.62-6.3,4.29-12.85,5.58-19.53.69-3.56,1.56-7.1,2.69-10.54.61-1.86,1.63-6.38,2.5-8.18,2.33-4.83,4.88-6.81,7.25-11.63,1.7-3.45,3.55-6.84,5.51-10.15,2.79-4.72,2.91-7.8,5.83-12.44,1.47-2.34,5.93-6.11,7.37-8.47.9-1.47,1.7-3.04,2.28-4.65,1.27-3.49-.3-6.25-2.43-8.9-1.96-2.44-4.67-3.27-7.49-3.28-1.78,0-3.7.78-5.32,1.65-3.25,1.75-5.65,4.43-7.83,7.44-2.92,4.04-4.63,7.1-7.64,11.08-2.42,3.2-6.3,7.2-8.5,10.56-2.17,3.31-5.11,7.93-7.14,11.33-4.13,6.95-7.4,12.66-11.43,19.67-.66,1.14-.96,2.49-1.43,3.74-.14,0-.29,0-.43,0-.05-.45-.19-.92-.13-1.35,1.23-8.69,2.89-17.99,7.41-25.61,3.81-6.44,8.07-12.04,11.53-18.68,1.75-3.36,3.41-6.77,5.08-10.17.93-1.9,1.04-5.09,2.08-6.93,2.45-4.34,5.63-7.44,8.21-11.71,2.4-3.98,2.33-8.15-.33-11.92-2.21-3.13-7.15-4.45-11.01-3.24-4.63,1.45-7.39,5.14-10.38,8.45-3.34,3.69-6.35,7.69-9.34,11.68-2.05,2.73-3.87,5.64-5.68,8.54-3.88,6.22-7.73,12.46-11.51,18.74-2.99,4.98-5.88,10.02-8.76,15.06-1.18,2.08-2.18,4.25-3.29,6.37-.28.54-.67,1.03-1.01,1.55-.2-.08-.4-.16-.6-.25.54-1.64.88-3.38,1.66-4.91,3.48-6.9,1.94-4.38,3.55-12.03.49-2.33,6.76-13.9,7.72-16.13,1.58-3.68,1.12-6.24,2.7-9.92,1.26-2.94,4.62-6.98,5.78-9.96,1.22-3.13,1.77-6.35.71-9.7-1.04-3.3-3.86-5.46-7.3-5.98-2.96-.45-5.14.42-7.35,2.38-3.3,2.93-3.81,6.84-6.07,10.57-.98,1.62-2.39,2.98-3.35,4.6-2.14,3.63-4.44,7.22-6.12,11.07-4.47,10.28-11.95,19.55-17.33,29.36-.23.43-.52.83-.81,1.22-.12.17-1.7,2.94-2.08,3.26-.38-.62.53-3.82.33-4.42-1.21-3.57-3.64-6.27-6.24-8.83-2.15-2.12-6.06-1.26-7.07,1.58-1.71,4.85-3.24,9.77-4.87,14.66-1.28,3.86-2.53,7.74-3.91,11.56-.81,2.23-1.79,4.41-2.83,6.54-1.74,3.55-3.95,6.92-5.27,10.62-.72,2.02-.49,4.67.13,6.81,1.05,3.63,2.7,7.09,4.16,10.59,1.46,3.5,5.44,7.65,6.73,11.21,2.29,6.32,2.23,11.93,4.16,18.37,1.56,5.21,3.07,10.43,5.86,15.13,1.74,2.93,3.9,5.62,5.65,8.55,1.86,3.11,3.47,6.37,5.2,9.56,1.03,1.91,2.11,3.79,3.11,5.71,1.25,2.4,2.48,4.81,3.65,7.25,2.75,5.77,5.57,11.5,8.14,17.35,1.78,4.07,3.08,8.29,3.84,12.74,1.03,6.04,1.47,12.07.84,18.14-.31,3-1.17,5.95-1.86,8.91-.4,1.74-.86,3.48-1.46,5.16l-5.1,10.41c7.55,2.57,12.51,10.94,18.24,14.07,6.29,3.43,13.64,4.75,33.87,6.77,15.63,1.56,16.15,1.04,23.45.52,7.25-.52,11.27-.6,15.86-.38.16-3.02.33-6.04.54-9.05.29-4.13,1.82-7.91,3.68-11.57l8.97-16.08Z"/>
      </g>
      <g>
        <path class="cls-1" d="M306.08,242.95c6.25-13.03,12.8-26.71,13.36-27.94,1.89-4.13,3.75-8.28,5.8-12.34,1.02-2.02,2.62-3.75,3.59-5.78,1.36-2.86,2.9-5.78,3.45-8.84,1.57-8.75,1.35-18.44,3.73-27.04,1.33-4.81,3.7-8.86,5.15-13.63.75-2.47,2.1-4.75,2.04-7.45-.06-2.85.69-5.83-.84-8.47-1.21-2.11-3.37-3.04-4.99-4.83-3.8-4.16-4.93-10.44-6.93-15.54-2.03-5.19-3.97-10.41-6.07-15.57-.65-1.59-1.61-3.07-2.58-4.5-1.26-1.87-3.37-2.28-5.63-1.31-4.48,1.94-8.2,4.82-10.05,9.42-1.57,3.9-2.8,7.97-3.82,12.06-.39,1.58-.01,3.49.45,5.13.86,3.03,2.1,6.46,1.77,9.59-.52,4.86-1.06,9.23.2,13.97.25.94.05,1.99.06,2.99-.27.03-.54.07-.81.1-.23-.78-.55-1.54-.67-2.33-1.27-8.54-2.66-17.06-3.69-25.63-.64-5.36-1.54-10.67-3.41-15.69-1.68-4.5-4.1-8.22-6.13-12.6-1.76-3.79-3.59-7.55-5.13-11.42-2.12-5.33-3.61-11.45-6.04-16.63-2.25-4.78-5.34-9.17-8.11-13.7-.93-1.52-1.98-2.98-3.03-4.42-3.01-4.15-8.09-6.84-13.61-5.44-6.77,1.71-11.1,8.69-9.33,15.5,1.07,4.09,6.09,13.78,7.3,17.83,2.57,8.63,1.45,11.58,4.09,20.19,1.92,6.28,4.08,12.49,6.04,18.76.45,1.43.58,2.97.71,4.47.4,4.76.74,9.53,1.09,14.29.04.49,0,.98,0,1.48-.19.03-.38.05-.57.08-.3-1.16-.62-2.32-.89-3.49-.83-3.6-1.37-7.29-2.52-10.78-1.55-4.73-3.59-9.3-5.36-13.97-2.95-7.76-6.04-15.47-8.71-23.33-2.27-6.69-4.44-13.38-7.55-19.75-1.76-3.6-3.05-7.42-4.68-11.09-.88-1.97-1.83-3.97-3.09-5.71-4.16-5.75-12.66-6.24-17.61-1.96-2.19,1.89-4.18,3.94-5.28,6.71-1.01,2.54-.76,5.07.2,7.47,2.74,6.86,6.88,13.38,8.87,20.43,2.48,8.78,1.97,18.3,4.51,27.06,1.3,4.49,2.27,9.09,3.85,13.47,1.72,4.8,1.47,9.85,2.52,14.72,1.7,7.85,3.17,15.75,4.81,23.61.24,1.15.94,2.2,1.22,3.35.25,1.03.32,2.13.25,3.19-.02.38-.66.72-1.02,1.08-.29-.34-.75-.64-.84-1.03-.37-1.64-.59-3.31-.93-4.96-1.34-6.48-2.86-12.94-4.02-19.45-.84-4.69-3.12-8.76-4.77-13.11-2.52-6.64-4.86-13.38-6.73-20.23-2.64-9.66-6.38-18.92-9.78-28.3-1.09-3.01-2.24-6.03-2.97-9.13-1.35-5.76-7.26-8.06-12.37-6.98-7.08,1.5-12.32,10.43-9.8,18.21,1.98,6.13,6.37,12.74,7.98,18.99,2.76,10.72,2.56,21.15,5.09,31.93,1.56,6.64,4.75,13.3,5.91,20.03,1.24,7.19.65,14.39,3.19,21.24.32.85.5,1.77.63,2.68.2,1.35-.36,2.31-1.93,2.9-.32-.96-.74-1.88-.95-2.85-1.12-5.37-2.17-10.74-3.28-16.11-.19-.9-.43-1.82-.83-2.64-3.3-6.8-5.27-13.75-6.69-21.05-1.12-5.74-1.57-11.86-2.89-17.56-.37-1.58-.86-3.13-1.28-4.7-1.28-4.84-7.41-7.46-12.08-5.43-1.12.49-2.1,1.08-2.98,1.78-.39.31-1.94,1.58-3.37,4-.56.94-4.74,8.19-2.71,14.85.27.9.82,2.31,2.08,6.25.34,1.07.62,1.95.8,2.53.17.44.42,1.1.72,1.9,2.41,6.34,3.79,8.9,4.02,10.28,1.04,6.26-.2,12.68.74,18.96.5,3.32.54,6.7.8,10.05.43,5.41,1.01,10.82,1.24,16.25.11,2.62-.25,5.3-.73,7.9-1.24,6.78-2.83,13.49-3.96,20.29-.62,3.73-.67,7.57-.84,11.37-.34,7.38,1.22,17.91,1.63,25.28.86,15.65,1.84,18.05,6.77,30.74,3.6,9.26,7.66,17.23,11.55,23.87.8,2.38,1.17,4.76,1.34,7.15,3.69,1.57,6.86,3.69,8.99,4.93,13.57,7.95,27.65,5.98,51.06,3.65,16.38-1.64,32.64-3.26,46.37-15.11,2.37-2.05,4.36-4.14,6.04-6.14-.09-.11-.18-.21-.27-.32-.86-.8-1.68-1.63-2.42-2.54-1.39-1.68-2.49-3.54-3.33-5.53l-4.24-17.64c-.2-1.21-.53-2.43-.82-3.64-.95-3.93,1.14-6.98,2.88-10.16l11.03-19.17Z"/>
        <path class="cls-1" d="M164.75,286.12c.54-1.23,1.41-2.51,1.56-3.84.59-5.22,1.03-10.47,1.38-15.72.17-2.59,0-5.21.03-7.81.11-8.12-1.21-15.95-3.88-23.65-2.18-6.3-3.64-12.85-5.59-19.24-.66-2.16-1.85-4.16-2.73-6.26-.52-1.24-1.06-2.51-1.35-3.82-.61-2.7-1.18-5.41-1.54-8.15-.48-3.65-1.08-7.34-1-11,.06-2.88,1.19-5.72,1.63-8.61.69-4.51,1.19-9.05,1.78-13.57.11-.86.19-1.74.47-2.55,1.64-4.77,2.33-12.68,4.07-17.41,1.79-4.87,4.63-6.56,6.51-11.4.29-.73.77-1.39,1.41-2.5,2.03-3.97,2.93-7.45,3.37-9.83.61-3.3.93-5.18,0-7.29-1.22-2.76-4.07-4.77-4.69-5.21-.43-.3-.77-.49-.91-.56,0,0-1.55-.82-3.36-.94-2.51-.17-4.75,1.25-5.79,1.96-2.27,1.53-4.13,3.37-5.35,5.78-2.17,4.31-3.17,10.04-5.24,14.4-2.89,6.07-6.94,10.73-9.67,16.88-1.43,3.21-2.5,6.58-3.64,9.91-1.25,3.65-2.38,7.33-3.57,11-.46,1.42-1.04,1.79-2.74,1.22-3.13-1.04-3.99-1.59-2.28-5.72,2.62-6.3,4.29-12.85,5.58-19.53.69-3.56,1.56-7.1,2.69-10.54.61-1.86,1.63-6.38,2.5-8.18,2.33-4.83,4.88-6.81,7.25-11.63,1.7-3.45,3.55-6.84,5.51-10.15,2.79-4.72,2.91-7.8,5.83-12.44,1.47-2.34,5.93-6.11,7.37-8.47.9-1.47,1.7-3.04,2.28-4.65,1.27-3.49-.3-6.25-2.43-8.9-1.96-2.44-4.67-3.27-7.49-3.28-1.78,0-3.7.78-5.32,1.65-3.25,1.75-5.65,4.43-7.83,7.44-2.92,4.04-4.63,7.1-7.64,11.08-2.42,3.2-6.3,7.2-8.5,10.56-2.17,3.31-5.11,7.93-7.14,11.33-4.13,6.95-7.4,12.66-11.43,19.67-.66,1.14-.96,2.49-1.43,3.74-.14,0-.29,0-.43,0-.05-.45-.19-.92-.13-1.35,1.23-8.69,2.89-17.99,7.41-25.61,3.81-6.44,8.07-12.04,11.53-18.68,1.75-3.36,3.41-6.77,5.08-10.17.93-1.9,1.04-5.09,2.08-6.93,2.45-4.34,5.63-7.44,8.21-11.71,2.4-3.98,2.33-8.15-.33-11.92-2.21-3.13-7.15-4.45-11.01-3.24-4.63,1.45-7.39,5.14-10.38,8.45-3.34,3.69-6.35,7.69-9.34,11.68-2.05,2.73-3.87,5.64-5.68,8.54-3.88,6.22-7.73,12.46-11.51,18.74-2.99,4.98-5.88,10.02-8.76,15.06-1.18,2.08-2.18,4.25-3.29,6.37-.28.54-.67,1.03-1.01,1.55-.2-.08-.4-.16-.6-.25.54-1.64.88-3.38,1.66-4.91,3.48-6.9,1.94-4.38,3.55-12.03.49-2.33,6.76-13.9,7.72-16.13,1.58-3.68,1.12-6.24,2.7-9.92,1.26-2.94,4.62-6.98,5.78-9.96,1.22-3.13,1.77-6.35.71-9.7-1.04-3.3-3.86-5.46-7.3-5.98-2.96-.45-5.14.42-7.35,2.38-3.3,2.93-3.81,6.84-6.07,10.57-.98,1.62-2.39,2.98-3.35,4.6-2.14,3.63-4.44,7.22-6.12,11.07-4.47,10.28-11.95,19.55-17.33,29.36-.23.43-.52.83-.81,1.22-.12.17-1.7,2.94-2.08,3.26-.38-.62.53-3.82.33-4.42-1.21-3.57-3.64-6.27-6.24-8.83-2.15-2.12-6.06-1.26-7.07,1.58-1.71,4.85-3.24,9.77-4.87,14.66-1.28,3.86-2.53,7.74-3.91,11.56-.81,2.23-1.79,4.41-2.83,6.54-1.74,3.55-3.95,6.92-5.27,10.62-.72,2.02-.49,4.67.13,6.81,1.05,3.63,2.7,7.09,4.16,10.59,1.46,3.5,5.44,7.65,6.73,11.21,2.29,6.32,2.23,11.93,4.16,18.37,1.56,5.21,3.07,10.43,5.86,15.13,1.74,2.93,3.9,5.62,5.65,8.55,1.86,3.11,3.47,6.37,5.2,9.56,1.03,1.91,2.11,3.79,3.11,5.71,1.25,2.4,2.48,4.81,3.65,7.25,2.75,5.77,5.57,11.5,8.14,17.35,1.78,4.07,3.08,8.29,3.84,12.74,1.03,6.04,1.47,12.07.84,18.14-.31,3-1.17,5.95-1.86,8.91-.4,1.74-.86,3.48-1.46,5.16l-5.1,10.41c7.55,2.57,12.51,10.94,18.24,14.07,6.29,3.43,13.64,4.75,33.87,6.77,15.63,1.56,16.15,1.04,23.45.52,7.25-.52,11.27-.6,15.86-.38.16-3.02.33-6.04.54-9.05.29-4.13,1.82-7.91,3.68-11.57l8.97-16.08Z"/>
      </g>
    </g>
  </g>
</svg>