<svg version="1.1" xmlns="http://www.w3.org/2000/svg" viewBox="0 0 552 552">
<path fill="black" d="M468,552c-63.2,0-124.5-12.4-182.2-36.8c-55.7-23.6-105.8-57.3-148.8-100.3s-76.7-93-100.3-148.8C12.4,208.5,0,147.2,0,84
	c0-26.9,18.2-50.7,44.2-57.9l88.1-24c29-7.9,59.6,7,71.1,34.8l1.5,3.7l38.5,92.3c10.3,24.6,3.3,52.6-17.4,69.5l-36.9,30.2
	c29.5,55.2,75.1,100.8,130.3,130.3l30.2-36.9c16.6-20.4,45.1-27.6,69.5-17.4l96,40c27.8,11.5,42.7,42.1,34.8,71.1l-24,88
	C518.7,533.8,494.9,552,468,552z M148,40c-1.7,0-3.5,0.2-5.2,0.7l-88,24C46.1,67.1,40,75,40,84c0,236,192,428,428,428
	c9,0,16.9-6.1,19.3-14.8l24-87.9c2.6-9.7-2.3-19.8-11.6-23.7l-96-40c-8.1-3.4-17.6-1-23.1,5.7l-0.1,0.1l-50.3,61.4l-14.1-6.7
	c-74.5-35.3-135-95.7-170.2-170.2l-6.7-14.1l61.4-50.2c6.9-5.6,9.2-14.9,5.8-23.1l-40.6-97.3C162.5,44.2,155.5,40,148,40z"/>
</svg>
